<?xml version="1.0" encoding="UTF-8"?>
<!DOCTYPE svg PUBLIC "-//W3C//DTD SVG 1.1//EN" "http://www.w3.org/Graphics/SVG/1.1/DTD/svg11.dtd">
<svg xmlns="http://www.w3.org/2000/svg" version="1.1" width="155px" height="150px" style="shape-rendering:geometricPrecision; text-rendering:geometricPrecision; image-rendering:optimizeQuality; fill-rule:evenodd; clip-rule:evenodd" xmlns:xlink="http://www.w3.org/1999/xlink">
<g><path style="opacity:1" fill="#fefefe" d="M -0.5,-0.5 C 51.1667,-0.5 102.833,-0.5 154.5,-0.5C 154.5,49.5 154.5,99.5 154.5,149.5C 102.833,149.5 51.1667,149.5 -0.5,149.5C -0.5,99.5 -0.5,49.5 -0.5,-0.5 Z"/></g>
<g><path style="opacity:1" fill="#e3e3e3" d="M 44.5,6.5 C 43.3951,7.60048 42.0618,8.26714 40.5,8.5C 41.375,6.19387 42.7084,5.5272 44.5,6.5 Z"/></g>
<g><path style="opacity:1" fill="#d5d5d5" d="M 44.5,6.5 C 45.1667,7.83333 46.1667,8.83333 47.5,9.5C 48.1667,9.5 48.5,9.83333 48.5,10.5C 49.1667,11.8333 50.1667,12.8333 51.5,13.5C 52.8333,14.8333 54.1667,16.1667 55.5,17.5C 61.7765,25.445 68.7765,32.7784 76.5,39.5C 78.5138,39.6085 80.1805,38.9418 81.5,37.5C 82.8333,36.8333 83.8333,35.8333 84.5,34.5C 84.5,33.8333 84.8333,33.5 85.5,33.5C 87.2624,32.7377 88.2624,31.4044 88.5,29.5C 95.4785,22.1872 102.479,14.8539 109.5,7.5C 110.689,6.57131 112.022,6.23798 113.5,6.5C 113.5,8.5 114.5,9.5 116.5,9.5C 118.5,12.1667 120.833,14.5 123.5,16.5C 123.833,18.8333 125.167,20.1667 127.5,20.5C 129.806,22.1394 131.806,24.1394 133.5,26.5C 134.167,27.8333 135.167,28.8333 136.5,29.5C 137.167,29.5 137.5,29.8333 137.5,30.5C 138.167,31.8333 139.167,32.8333 140.5,33.5C 141.167,33.5 141.5,33.8333 141.5,34.5C 142.942,35.8195 143.608,37.4862 143.5,39.5C 136.775,45.2228 130.775,51.5561 125.5,58.5C 123.5,58.5 122.5,59.5 122.5,61.5C 118.5,64.8333 114.833,68.5 111.5,72.5C 110.427,73.2506 110.26,74.2506 111,75.5C 114.036,78.7044 117.203,81.7044 120.5,84.5C 122.833,87.5 125.5,90.1667 128.5,92.5C 129.833,94.5 131.5,96.1667 133.5,97.5C 133.5,99.5 134.5,100.5 136.5,100.5C 139.28,103.224 141.946,106.058 144.5,109C 141.982,112.346 139.316,115.513 136.5,118.5C 134.5,118.5 133.5,119.5 133.5,121.5C 132.833,121.5 132.5,121.833 132.5,122.5C 130.596,122.738 129.262,123.738 128.5,125.5C 123.167,130.167 118.167,135.167 113.5,140.5C 112.167,140.167 110.833,139.833 109.5,139.5C 107.833,137.5 106.167,135.5 104.5,133.5C 103.833,132.167 102.833,131.167 101.5,130.5C 100.833,130.5 100.5,130.167 100.5,129.5C 99.5,127.833 98.1667,126.5 96.5,125.5C 95.1667,123.5 93.5,121.833 91.5,120.5C 91.1667,118.167 89.8333,116.833 87.5,116.5C 87.5,114.5 86.5,113.5 84.5,113.5C 82.6887,110.153 80.022,108.32 76.5,108C 67.8824,116.449 59.549,124.949 51.5,133.5C 50.1667,134.167 49.1667,135.167 48.5,136.5C 48.5,137.167 48.1667,137.5 47.5,137.5C 46.1667,138.167 45.1667,139.167 44.5,140.5C 43.609,139.89 42.609,139.557 41.5,139.5C 40.8333,138.167 39.8333,137.167 38.5,136.5C 37.8333,135.167 36.8333,134.167 35.5,133.5C 33.1667,130.5 30.5,127.833 27.5,125.5C 26.1667,124.833 25.1667,123.833 24.5,122.5C 21.1053,118.102 17.1053,114.436 12.5,111.5C 12.5,111.167 12.5,110.833 12.5,110.5C 13.5,108.5 14.5,106.5 15.5,104.5C 24.7792,94.5541 34.4459,84.8874 44.5,75.5C 45.1239,75.0831 45.4573,74.4164 45.5,73.5C 45.2528,72.2867 44.5862,71.62 43.5,71.5C 43.5,69.5 42.5,68.5 40.5,68.5C 40.5,66.5 39.5,65.5 37.5,65.5C 34.5643,60.8947 30.8976,56.8947 26.5,53.5C 25.8333,53.5 25.5,53.1667 25.5,52.5C 24.8333,51.1667 23.8333,50.1667 22.5,49.5C 21.8333,49.1667 21.1667,48.8333 20.5,48.5C 20.573,46.9731 19.9063,45.9731 18.5,45.5C 17.1093,43.4286 15.276,41.7619 13,40.5C 11.5053,38.8904 11.3387,37.2237 12.5,35.5C 21.9071,26.4235 31.2404,17.4235 40.5,8.5C 42.0618,8.26714 43.3951,7.60048 44.5,6.5 Z"/></g>
<g><path style="opacity:1" fill="#ededed" d="M 44.5,6.5 C 46.5,6.5 47.5,7.5 47.5,9.5C 46.1667,8.83333 45.1667,7.83333 44.5,6.5 Z"/></g>
<g><path style="opacity:1" fill="#e7e7e7" d="M 113.5,6.5 C 114.833,7.16667 115.833,8.16667 116.5,9.5C 114.5,9.5 113.5,8.5 113.5,6.5 Z"/></g>
<g><path style="opacity:1" fill="#eeeeee" d="M 48.5,10.5 C 50.5,10.5 51.5,11.5 51.5,13.5C 50.1667,12.8333 49.1667,11.8333 48.5,10.5 Z"/></g>
<g><path style="opacity:1" fill="#e2e2e2" d="M 123.5,16.5 C 125.167,17.5 126.5,18.8333 127.5,20.5C 125.167,20.1667 123.833,18.8333 123.5,16.5 Z"/></g>
<g><path style="opacity:1" fill="#e5e5e5" d="M 55.5,17.5 C 63.2235,24.2216 70.2235,31.555 76.5,39.5C 68.7765,32.7784 61.7765,25.445 55.5,17.5 Z"/></g>
<g><path style="opacity:1" fill="#ececec" d="M 133.5,26.5 C 135.5,26.5 136.5,27.5 136.5,29.5C 135.167,28.8333 134.167,27.8333 133.5,26.5 Z"/></g>
<g><path style="opacity:1" fill="#eaeaea" d="M 137.5,30.5 C 139.5,30.5 140.5,31.5 140.5,33.5C 139.167,32.8333 138.167,31.8333 137.5,30.5 Z"/></g>
<g><path style="opacity:1" fill="#e3e3e3" d="M 88.5,29.5 C 88.2624,31.4044 87.2624,32.7377 85.5,33.5C 85.7376,31.5956 86.7376,30.2623 88.5,29.5 Z"/></g>
<g><path style="opacity:1" fill="#e8e8e8" d="M 141.5,34.5 C 142.496,34.4142 143.329,34.7476 144,35.5C 144.765,37.0657 144.598,38.3991 143.5,39.5C 143.608,37.4862 142.942,35.8195 141.5,34.5 Z"/></g>
<g><path style="opacity:1" fill="#e4e4e4" d="M 84.5,34.5 C 83.8333,35.8333 82.8333,36.8333 81.5,37.5C 81.5,35.5 82.5,34.5 84.5,34.5 Z"/></g>
<g><path style="opacity:1" fill="#f1f1f1" d="M 143.5,39.5 C 138.225,46.4439 132.225,52.7772 125.5,58.5C 130.775,51.5561 136.775,45.2228 143.5,39.5 Z"/></g>
<g><path style="opacity:1" fill="#f0f0f0" d="M 18.5,45.5 C 19.9063,45.9731 20.573,46.9731 20.5,48.5C 19.0937,48.0269 18.427,47.0269 18.5,45.5 Z"/></g>
<g><path style="opacity:1" fill="#ededed" d="M 22.5,49.5 C 23.8333,50.1667 24.8333,51.1667 25.5,52.5C 23.5,52.5 22.5,51.5 22.5,49.5 Z"/></g>
<g><path style="opacity:1" fill="#eaeaea" d="M 26.5,53.5 C 30.8976,56.8947 34.5643,60.8947 37.5,65.5C 33.1024,62.1053 29.4357,58.1053 26.5,53.5 Z"/></g>
<g><path style="opacity:1" fill="#ececec" d="M 125.5,58.5 C 124.833,59.8333 123.833,60.8333 122.5,61.5C 122.5,59.5 123.5,58.5 125.5,58.5 Z"/></g>
<g><path style="opacity:1" fill="#e6e6e6" d="M 37.5,65.5 C 39.5,65.5 40.5,66.5 40.5,68.5C 39.1667,67.8333 38.1667,66.8333 37.5,65.5 Z"/></g>
<g><path style="opacity:1" fill="#e5e5e5" d="M 40.5,68.5 C 42.5,68.5 43.5,69.5 43.5,71.5C 42.1667,70.8333 41.1667,69.8333 40.5,68.5 Z"/></g>
<g><path style="opacity:1" fill="#eaeaea" d="M 111.5,72.5 C 114.5,76.5 117.5,80.5 120.5,84.5C 117.203,81.7044 114.036,78.7044 111,75.5C 110.26,74.2506 110.427,73.2506 111.5,72.5 Z"/></g>
<g><path style="opacity:1" fill="#e5e5e5" d="M 43.5,71.5 C 44.5862,71.62 45.2528,72.2867 45.5,73.5C 45.4573,74.4164 45.1239,75.0831 44.5,75.5C 44.5674,74.0413 44.2341,72.7079 43.5,71.5 Z"/></g>
<g><path style="opacity:1" fill="#ededed" d="M 120.5,84.5 C 124.167,86.1667 126.833,88.8333 128.5,92.5C 125.5,90.1667 122.833,87.5 120.5,84.5 Z"/></g>
<g><path style="opacity:1" fill="#efefef" d="M 128.5,92.5 C 131.167,93.1667 132.833,94.8333 133.5,97.5C 131.5,96.1667 129.833,94.5 128.5,92.5 Z"/></g>
<g><path style="opacity:1" fill="#e3e3e3" d="M 133.5,97.5 C 134.833,98.1667 135.833,99.1667 136.5,100.5C 134.5,100.5 133.5,99.5 133.5,97.5 Z"/></g>
<g><path style="opacity:1" fill="#e0e0e0" d="M 15.5,104.5 C 14.5,106.5 13.5,108.5 12.5,110.5C 11.4306,107.804 12.4306,105.804 15.5,104.5 Z"/></g>
<g><path style="opacity:1" fill="#e8e8e8" d="M 12.5,111.5 C 17.1053,114.436 21.1053,118.102 24.5,122.5C 19.8947,119.564 15.8947,115.898 12.5,111.5 Z"/></g>
<g><path style="opacity:1" fill="#e5e5e5" d="M 84.5,113.5 C 86.5,113.5 87.5,114.5 87.5,116.5C 86.1667,115.833 85.1667,114.833 84.5,113.5 Z"/></g>
<g><path style="opacity:1" fill="#e3e3e3" d="M 87.5,116.5 C 89.8333,116.833 91.1667,118.167 91.5,120.5C 89.8333,119.5 88.5,118.167 87.5,116.5 Z"/></g>
<g><path style="opacity:1" fill="#eeeeee" d="M 136.5,118.5 C 135.833,119.833 134.833,120.833 133.5,121.5C 133.5,119.5 134.5,118.5 136.5,118.5 Z"/></g>
<g><path style="opacity:1" fill="#efefef" d="M 91.5,120.5 C 93.5,121.833 95.1667,123.5 96.5,125.5C 93.8333,124.833 92.1667,123.167 91.5,120.5 Z"/></g>
<g><path style="opacity:1" fill="#f0f0f0" d="M 132.5,122.5 C 131.738,124.262 130.404,125.262 128.5,125.5C 129.262,123.738 130.596,122.738 132.5,122.5 Z"/></g>
<g><path style="opacity:1" fill="#eeeeee" d="M 27.5,125.5 C 30.5,127.833 33.1667,130.5 35.5,133.5C 31.8333,131.833 29.1667,129.167 27.5,125.5 Z"/></g>
<g><path style="opacity:1" fill="#ededed" d="M 96.5,125.5 C 98.1667,126.5 99.5,127.833 100.5,129.5C 98.1667,129.167 96.8333,127.833 96.5,125.5 Z"/></g>
<g><path style="opacity:1" fill="#ebebeb" d="M 101.5,130.5 C 102.833,131.167 103.833,132.167 104.5,133.5C 102.5,133.5 101.5,132.5 101.5,130.5 Z"/></g>
<g><path style="opacity:1" fill="#efefef" d="M 35.5,133.5 C 36.8333,134.167 37.8333,135.167 38.5,136.5C 36.5,136.5 35.5,135.5 35.5,133.5 Z"/></g>
<g><path style="opacity:1" fill="#f0f0f0" d="M 51.5,133.5 C 51.5,135.5 50.5,136.5 48.5,136.5C 49.1667,135.167 50.1667,134.167 51.5,133.5 Z"/></g>
<g><path style="opacity:1" fill="#efefef" d="M 47.5,137.5 C 47.5,139.5 46.5,140.5 44.5,140.5C 45.1667,139.167 46.1667,138.167 47.5,137.5 Z"/></g>
<g><path style="opacity:1" fill="#e9e9e9" d="M 109.5,139.5 C 110.833,139.833 112.167,140.167 113.5,140.5C 111.872,141.853 110.538,141.519 109.5,139.5 Z"/></g>
<g><path style="opacity:1" fill="#e5e5e5" d="M 41.5,139.5 C 42.609,139.557 43.609,139.89 44.5,140.5C 43.221,141.715 42.221,141.382 41.5,139.5 Z"/></g>
</svg>
