<svg id="Icon_ionic-ios-options" data-name="Icon ionic-ios-options" xmlns="http://www.w3.org/2000/svg" width="19.871" height="16.814" viewBox="0 0 19.871 16.814">
  <path id="Path_660" data-name="Path 660" d="M15.379,25.9a1.914,1.914,0,0,1,3.506,0h3.6a.767.767,0,0,1,.764.764h0a.766.766,0,0,1-.764.764h-3.6a1.914,1.914,0,0,1-3.506,0H4.139a.766.766,0,0,1-.764-.764h0a.767.767,0,0,1,.764-.764Z" transform="translate(-3.375 -11.758)" fill="#575757"/>
  <path id="Path_661" data-name="Path 661" d="M7.736,16.334a1.914,1.914,0,0,1,3.506,0H22.481a.767.767,0,0,1,.764.764h0a.767.767,0,0,1-.764.764H11.242a1.914,1.914,0,0,1-3.506,0h-3.6a.767.767,0,0,1-.764-.764h0a.767.767,0,0,1,.764-.764Z" transform="translate(-3.375 -8.691)" fill="#575757"/>
  <path id="Path_662" data-name="Path 662" d="M15.379,6.771a1.914,1.914,0,0,1,3.506,0h3.6a.767.767,0,0,1,.764.764h0a.767.767,0,0,1-.764.764h-3.6a1.914,1.914,0,0,1-3.506,0H4.139a.767.767,0,0,1-.764-.764h0a.767.767,0,0,1,.764-.764Z" transform="translate(-3.375 -5.625)" fill="#575757"/>
</svg>
