<svg xmlns="http://www.w3.org/2000/svg" width="19.417" height="18.621" viewBox="0 0 19.417 18.621">
  <g id="Componente_15_23"  transform="translate(0.513 0.5)">
    <path id="Icon_awesome-star" data-name="Icon awesome-star" d="M9.65.611,7.405,5.163l-5.022.732a1.1,1.1,0,0,0-.608,1.877l3.633,3.541-.859,5a1.1,1.1,0,0,0,1.595,1.158l4.493-2.362,4.493,2.362a1.1,1.1,0,0,0,1.595-1.158l-.859-5L19.5,7.772a1.1,1.1,0,0,0-.608-1.877l-5.022-.732L11.623.611a1.1,1.1,0,0,0-1.973,0Z" transform="translate(-1.441 0.001)" fill="none" stroke="#000" stroke-width="1"/>
  </g>
</svg>
