<svg id="cheque_gris_ubicación" data-name="cheque gris ubicación" xmlns="http://www.w3.org/2000/svg" width="20.607" height="20.607" viewBox="0 0 20.607 20.607">
  <path id="Icon_awesome-check-circle" data-name="Icon awesome-check-circle" d="M21.17,10.866a10.3,10.3,0,1,1-10.3-10.3A10.3,10.3,0,0,1,21.17,10.866Zm-11.5,5.456,7.645-7.645a.665.665,0,0,0,0-.94l-.94-.94a.665.665,0,0,0-.94,0L9.2,13.031,6.293,10.121a.665.665,0,0,0-.94,0l-.94.94a.665.665,0,0,0,0,.94l4.321,4.321a.665.665,0,0,0,.94,0Z" transform="translate(-0.563 -0.563)" fill="rgba(57,57,57,0.4)"/>
</svg>
